<svg width="585" height="307" viewBox="0 0 585 307" fill="none" xmlns="http://www.w3.org/2000/svg">
<path d="M72.76 75.9215H511.76V233.922H72.76V75.9215Z" fill="#0F0E0E"/>
<path d="M133.595 174.806C131.176 174.848 129.002 175.308 127.073 176.185C125.181 177.025 123.589 178.226 122.296 179.789C121.002 181.315 120.026 183.147 119.366 185.286C118.706 187.388 118.398 189.722 118.443 192.288C118.505 195.808 119.108 198.878 120.254 201.498C121.399 204.082 123.084 206.069 125.309 207.461C127.57 208.851 130.351 209.518 133.65 209.46C135.557 209.427 137.314 209.25 138.922 208.928C140.53 208.607 142.008 208.214 143.357 207.751L143.405 210.5C142.094 211.037 140.616 211.466 138.972 211.788C137.364 212.109 135.478 212.289 133.315 212.327C129.392 212.395 126.078 211.609 123.372 209.97C120.703 208.329 118.664 206 117.255 202.98C115.882 199.961 115.16 196.416 115.089 192.347C115.038 189.45 115.413 186.767 116.213 184.296C117.014 181.825 118.205 179.677 119.786 177.852C121.368 176.028 123.305 174.601 125.598 173.57C127.927 172.54 130.594 171.998 133.6 171.945C135.47 171.913 137.27 172.065 138.999 172.401C140.765 172.737 142.406 173.24 143.921 173.911L142.705 176.737C141.3 176.065 139.825 175.577 138.279 175.274C136.77 174.934 135.208 174.778 133.595 174.806ZM189.626 196.161C189.666 198.434 189.409 200.511 188.855 202.391C188.337 204.233 187.522 205.843 186.409 207.219C185.332 208.558 183.975 209.609 182.338 210.371C180.701 211.133 178.82 211.532 176.693 211.569C174.677 211.605 172.856 211.288 171.231 210.62C169.642 209.914 168.267 208.911 167.108 207.611C165.948 206.275 165.058 204.676 164.439 202.817C163.819 200.958 163.49 198.891 163.45 196.618C163.395 193.429 163.86 190.707 164.848 188.453C165.871 186.161 167.363 184.393 169.321 183.149C171.316 181.904 173.689 181.257 176.438 181.209C179.225 181.161 181.582 181.761 183.511 183.011C185.476 184.224 186.973 185.958 188.002 188.214C189.032 190.469 189.573 193.119 189.626 196.161ZM166.695 196.562C166.738 199.055 167.125 201.248 167.855 203.142C168.584 205 169.691 206.429 171.175 207.43C172.659 208.431 174.502 208.912 176.701 208.874C178.974 208.834 180.835 208.288 182.283 207.236C183.731 206.147 184.787 204.662 185.451 202.78C186.114 200.862 186.425 198.674 186.382 196.218C186.339 193.762 185.971 191.604 185.279 189.746C184.586 187.888 183.516 186.44 182.067 185.402C180.619 184.363 178.74 183.865 176.43 183.905C173.094 183.963 170.62 185.106 169.009 187.335C167.398 189.563 166.626 192.639 166.695 196.562ZM242.132 180.063C245.065 180.011 247.352 180.797 248.994 182.418C250.673 184.039 251.543 186.628 251.605 190.184L251.946 209.706L248.811 209.761L248.472 190.349C248.427 187.746 247.807 185.831 246.612 184.605C245.416 183.342 243.81 182.729 241.794 182.764C238.971 182.813 236.822 183.676 235.348 185.352C233.91 186.99 233.22 189.515 233.28 192.924L233.578 210.026L230.444 210.081L230.105 190.669C230.074 188.909 229.774 187.466 229.204 186.339C228.671 185.212 227.905 184.382 226.906 183.849C225.943 183.316 224.765 183.061 223.372 183.085C221.539 183.117 219.987 183.53 218.718 184.322C217.448 185.114 216.478 186.286 215.809 187.838C215.176 189.389 214.88 191.357 214.921 193.74L215.211 210.347L212.132 210.401L211.621 181.145L214.096 181.102L214.672 185.768L214.837 185.765C215.333 184.766 215.978 183.875 216.771 183.091C217.601 182.306 218.598 181.665 219.763 181.168C220.928 180.671 222.262 180.409 223.765 180.383C225.928 180.345 227.75 180.772 229.233 181.663C230.715 182.554 231.766 183.911 232.384 185.734L232.604 185.73C233.417 183.955 234.64 182.577 236.273 181.595C237.942 180.612 239.896 180.102 242.132 180.063ZM288.069 179.261C291.808 179.195 294.745 180.409 296.879 182.903C299.049 185.395 300.178 189.116 300.264 194.065C300.322 197.365 299.876 200.178 298.926 202.505C297.976 204.795 296.595 206.543 294.782 207.748C293.006 208.952 290.853 209.577 288.324 209.621C286.601 209.651 285.093 209.421 283.801 208.93C282.509 208.439 281.434 207.779 280.576 206.951C279.718 206.122 279.042 205.199 278.547 204.181L278.327 204.185C278.417 205.1 278.489 206.107 278.545 207.206C278.6 208.269 278.636 209.258 278.652 210.175L278.862 222.218L275.728 222.273L274.99 180.039L277.575 179.994L278.056 185.486L278.221 185.484C278.679 184.412 279.34 183.41 280.204 182.479C281.068 181.547 282.136 180.795 283.41 180.222C284.719 179.613 286.272 179.292 288.069 179.261ZM287.676 181.963C285.513 182.001 283.743 182.49 282.366 183.431C280.989 184.372 279.967 185.746 279.302 187.555C278.636 189.327 278.326 191.514 278.372 194.117L278.381 194.667C278.429 197.417 278.799 199.721 279.492 201.579C280.22 203.4 281.271 204.757 282.643 205.649C284.053 206.542 285.802 206.97 287.892 206.933C289.945 206.897 291.641 206.373 292.98 205.359C294.355 204.308 295.375 202.842 296.039 200.96C296.739 199.041 297.066 196.761 297.019 194.122C296.95 190.126 296.145 187.096 294.605 185.033C293.065 182.932 290.755 181.909 287.676 181.963ZM345.237 178.813L345.747 208.069L343.163 208.114L342.635 203.117L342.47 203.12C341.976 204.192 341.259 205.158 340.321 206.018C339.419 206.877 338.33 207.556 337.056 208.055C335.781 208.554 334.3 208.818 332.614 208.848C330.341 208.888 328.428 208.536 326.875 207.793C325.357 207.013 324.2 205.841 323.403 204.278C322.605 202.715 322.186 200.76 322.145 198.414L321.81 179.222L324.945 179.167L325.275 198.084C325.323 200.871 325.983 202.931 327.253 204.266C328.559 205.563 330.44 206.19 332.897 206.148C335.06 206.11 336.849 205.675 338.265 204.844C339.68 203.975 340.721 202.71 341.389 201.049C342.093 199.386 342.424 197.327 342.381 194.87L342.102 178.868L345.237 178.813ZM377.908 205.417C378.714 205.403 379.483 205.334 380.215 205.212C380.945 205.052 381.584 204.876 382.131 204.683L382.175 207.213C381.629 207.442 380.935 207.638 380.095 207.799C379.291 207.96 378.431 208.048 377.514 208.064C375.901 208.092 374.521 207.823 373.374 207.256C372.227 206.653 371.33 205.715 370.685 204.443C370.076 203.17 369.754 201.525 369.719 199.509L369.394 180.922L365.105 180.997L365.074 179.237L369.346 178.172L370.383 171.388L372.363 171.353L372.484 178.337L381.503 178.18L381.547 180.71L372.529 180.867L372.851 199.344C372.886 201.361 373.316 202.893 374.142 203.942C374.966 204.955 376.221 205.446 377.908 205.417ZM413.202 177.077C415.732 177.032 417.832 177.582 419.502 178.727C421.208 179.834 422.501 181.388 423.379 183.39C424.294 185.391 424.775 187.711 424.821 190.351L424.857 192.44L403.96 192.805C404.029 196.728 404.979 199.7 406.811 201.722C408.68 203.743 411.283 204.724 414.619 204.666C416.452 204.634 418.044 204.46 419.395 204.143C420.747 203.826 422.223 203.286 423.823 202.525L423.873 205.385C422.418 206.07 420.978 206.572 419.553 206.89C418.129 207.208 416.463 207.384 414.557 207.418C411.661 207.468 409.176 206.906 407.101 205.732C405.064 204.558 403.494 202.862 402.392 200.644C401.326 198.389 400.766 195.758 400.714 192.752C400.661 189.746 401.11 187.079 402.059 184.752C403.009 182.425 404.425 180.585 406.309 179.232C408.191 177.842 410.489 177.124 413.202 177.077ZM413.248 179.716C410.535 179.764 408.37 180.7 406.751 182.525C405.132 184.313 404.205 186.878 403.97 190.22L421.567 189.913C421.532 187.859 421.207 186.068 420.594 184.539C419.98 183.009 419.061 181.815 417.836 180.956C416.647 180.097 415.118 179.684 413.248 179.716ZM458.765 176.336C459.498 176.323 460.196 176.366 460.858 176.465C461.555 176.526 462.181 176.625 462.733 176.762L462.343 179.629C461.754 179.493 461.165 179.393 460.578 179.33C459.989 179.23 459.346 179.187 458.65 179.199C457.33 179.222 456.143 179.499 455.089 180.031C454.035 180.563 453.131 181.312 452.378 182.279C451.624 183.245 451.058 184.392 450.678 185.719C450.297 187.046 450.122 188.534 450.15 190.184L450.431 206.241L447.296 206.296L446.785 177.04L449.425 176.994L449.851 182.488L450.016 182.485C450.473 181.34 451.097 180.321 451.888 179.427C452.715 178.496 453.711 177.763 454.875 177.229C456.039 176.659 457.335 176.361 458.765 176.336Z" fill="white" fill-opacity="0.18"/>
<path d="M164.418 117.894C164.041 122.193 163.155 126.057 161.759 129.484C160.42 132.864 158.551 135.728 156.153 138.076C153.807 140.429 150.918 142.133 147.484 143.19C144.103 144.251 140.211 144.589 135.808 144.204C131.353 143.814 127.526 142.801 124.329 141.164C121.188 139.48 118.664 137.302 116.758 134.629C114.856 131.905 113.515 128.734 112.735 125.117C112.008 121.503 111.832 117.547 112.208 113.247C112.711 107.497 114.081 102.58 116.317 98.4955C118.606 94.4154 121.768 91.3775 125.806 89.3818C129.899 87.3388 134.925 86.5779 140.882 87.0991C146.736 87.6112 151.475 89.2264 155.1 91.9447C158.729 94.6112 161.314 98.178 162.855 102.645C164.4 107.061 164.921 112.144 164.418 117.894ZM122.691 114.243C122.324 118.439 122.553 122.087 123.378 125.186C124.255 128.291 125.762 130.745 127.901 132.551C130.092 134.361 132.974 135.422 136.549 135.734C140.227 136.056 143.275 135.514 145.695 134.107C148.115 132.701 150 130.543 151.351 127.634C152.702 124.724 153.561 121.172 153.928 116.976C154.476 110.708 153.689 105.68 151.567 101.893C149.445 98.1053 145.639 95.9714 140.148 95.491C136.522 95.1738 133.473 95.7161 131.001 97.1181C128.581 98.5245 126.67 100.68 125.268 103.585C123.917 106.494 123.058 110.047 122.691 114.243ZM205.475 118.275C205.358 119.622 205.181 121.042 204.946 122.535C204.716 123.977 204.487 125.392 204.261 126.782L204.494 126.802C204.963 126.217 205.514 125.587 206.148 124.911C206.785 124.184 207.421 123.483 208.054 122.807C208.744 122.085 209.401 121.438 210.025 120.866L223.62 108.666L234.731 109.638L216.279 126.346L232.135 151.849L220.712 150.849L209.235 131.68L203.987 135.292L202.763 149.279L193.05 148.429L198.217 89.3748L207.929 90.2246L205.475 118.275Z" fill="white" fill-opacity="0.5"/>
</svg>
